<svg width="17" height="16" viewBox="0 0 17 16" fill="none" xmlns="http://www.w3.org/2000/svg">
<path d="M5.35526 4.00001H4.67662V2.00001C4.67662 1.8232 4.60512 1.65363 4.47785 1.52861C4.35058 1.40358 4.17797 1.33334 3.99798 1.33334C3.81799 1.33334 3.64538 1.40358 3.51811 1.52861C3.39084 1.65363 3.31934 1.8232 3.31934 2.00001V4.00001H2.64069C2.46071 4.00001 2.28809 4.07025 2.16082 4.19527C2.03355 4.3203 1.96205 4.48987 1.96205 4.66668C1.96205 4.84349 2.03355 5.01306 2.16082 5.13808C2.28809 5.26311 2.46071 5.33334 2.64069 5.33334H5.35526C5.53525 5.33334 5.70787 5.26311 5.83514 5.13808C5.96241 5.01306 6.03391 4.84349 6.03391 4.66668C6.03391 4.48987 5.96241 4.3203 5.83514 4.19527C5.70787 4.07025 5.53525 4.00001 5.35526 4.00001ZM3.99798 6.66668C3.81799 6.66668 3.64538 6.73692 3.51811 6.86194C3.39084 6.98696 3.31934 7.15653 3.31934 7.33334V14C3.31934 14.1768 3.39084 14.3464 3.51811 14.4714C3.64538 14.5964 3.81799 14.6667 3.99798 14.6667C4.17797 14.6667 4.35058 14.5964 4.47785 14.4714C4.60512 14.3464 4.67662 14.1768 4.67662 14V7.33334C4.67662 7.15653 4.60512 6.98696 4.47785 6.86194C4.35058 6.73692 4.17797 6.66668 3.99798 6.66668ZM8.74848 12C8.56849 12 8.39588 12.0702 8.26861 12.1953C8.14134 12.3203 8.06984 12.4899 8.06984 12.6667V14C8.06984 14.1768 8.14134 14.3464 8.26861 14.4714C8.39588 14.5964 8.56849 14.6667 8.74848 14.6667C8.92847 14.6667 9.10108 14.5964 9.22835 14.4714C9.35562 14.3464 9.42712 14.1768 9.42712 14V12.6667C9.42712 12.4899 9.35562 12.3203 9.22835 12.1953C9.10108 12.0702 8.92847 12 8.74848 12ZM14.8563 6.66668H14.1776V2.00001C14.1776 1.8232 14.1061 1.65363 13.9789 1.52861C13.8516 1.40358 13.679 1.33334 13.499 1.33334C13.319 1.33334 13.1464 1.40358 13.0191 1.52861C12.8918 1.65363 12.8203 1.8232 12.8203 2.00001V6.66668H12.1417C11.9617 6.66668 11.7891 6.73692 11.6618 6.86194C11.5345 6.98696 11.463 7.15653 11.463 7.33334C11.463 7.51015 11.5345 7.67972 11.6618 7.80475C11.7891 7.92977 11.9617 8.00001 12.1417 8.00001H14.8563C15.0363 8.00001 15.2089 7.92977 15.3361 7.80475C15.4634 7.67972 15.5349 7.51015 15.5349 7.33334C15.5349 7.15653 15.4634 6.98696 15.3361 6.86194C15.2089 6.73692 15.0363 6.66668 14.8563 6.66668ZM13.499 9.33334C13.319 9.33334 13.1464 9.40358 13.0191 9.52861C12.8918 9.65363 12.8203 9.8232 12.8203 10V14C12.8203 14.1768 12.8918 14.3464 13.0191 14.4714C13.1464 14.5964 13.319 14.6667 13.499 14.6667C13.679 14.6667 13.8516 14.5964 13.9789 14.4714C14.1061 14.3464 14.1776 14.1768 14.1776 14V10C14.1776 9.8232 14.1061 9.65363 13.9789 9.52861C13.8516 9.40358 13.679 9.33334 13.499 9.33334ZM10.1058 9.33334H9.42712V2.00001C9.42712 1.8232 9.35562 1.65363 9.22835 1.52861C9.10108 1.40358 8.92847 1.33334 8.74848 1.33334C8.56849 1.33334 8.39588 1.40358 8.26861 1.52861C8.14134 1.65363 8.06984 1.8232 8.06984 2.00001V9.33334H7.39119C7.21121 9.33334 7.03859 9.40358 6.91132 9.52861C6.78405 9.65363 6.71255 9.8232 6.71255 10C6.71255 10.1768 6.78405 10.3464 6.91132 10.4714C7.03859 10.5964 7.21121 10.6667 7.39119 10.6667H10.1058C10.2858 10.6667 10.4584 10.5964 10.5856 10.4714C10.7129 10.3464 10.7844 10.1768 10.7844 10C10.7844 9.8232 10.7129 9.65363 10.5856 9.52861C10.4584 9.40358 10.2858 9.33334 10.1058 9.33334Z" fill="white"/>
</svg>
