<svg width="28" height="28" viewBox="0 0 28 28" fill="none" xmlns="http://www.w3.org/2000/svg">
<path d="M21.8283 16.6716C21.6086 16.452 21.3107 16.3285 21 16.3285C20.6893 16.3285 20.3914 16.452 20.1717 16.6716C19.952 16.8913 19.8286 17.1893 19.8286 17.5C19.8286 17.8107 19.952 18.1086 20.1717 18.3283L20.51 18.6666H18.6667C17.429 18.6666 16.242 18.175 15.3668 17.2998C14.4917 16.4246 14 15.2376 14 14C14 12.7623 14.4917 11.5753 15.3668 10.7001C16.242 9.82497 17.429 9.33331 18.6667 9.33331H20.5217L20.1717 9.67164C20.0623 9.7801 19.9755 9.90913 19.9163 10.0513C19.8571 10.1935 19.8266 10.346 19.8266 10.5C19.8266 10.654 19.8571 10.8065 19.9163 10.9486C19.9755 11.0908 20.0623 11.2198 20.1717 11.3283C20.2807 11.4364 20.41 11.522 20.5521 11.58C20.6943 11.6381 20.8465 11.6675 21 11.6666C21.1535 11.6675 21.3057 11.6381 21.4479 11.58C21.59 11.522 21.7193 11.4364 21.8283 11.3283L24.1617 8.99497C24.2698 8.88596 24.3553 8.75667 24.4134 8.61453C24.4715 8.47239 24.5009 8.32018 24.5 8.16664C24.5009 8.0131 24.4715 7.86089 24.4134 7.71875C24.3553 7.5766 24.2698 7.44732 24.1617 7.33831L21.8283 5.00497C21.7196 4.89619 21.5904 4.80991 21.4483 4.75104C21.3062 4.69217 21.1538 4.66187 21 4.66187C20.6893 4.66187 20.3914 4.78528 20.1717 5.00497C19.952 5.22466 19.8286 5.52262 19.8286 5.83331C19.8286 6.14399 19.952 6.44195 20.1717 6.66164L20.51 6.99997H18.6667C17.5108 7.00082 16.3732 7.28786 15.3553 7.83549C14.3374 8.38311 13.471 9.17426 12.8333 10.1383C12.1957 9.17426 11.3293 8.38311 10.3114 7.83549C9.29349 7.28786 8.15584 7.00082 7 6.99997H4.66667C4.35725 6.99997 4.0605 7.12289 3.84171 7.34168C3.62292 7.56047 3.5 7.85722 3.5 8.16664C3.5 8.47606 3.62292 8.7728 3.84171 8.9916C4.0605 9.21039 4.35725 9.33331 4.66667 9.33331H7C8.23768 9.33331 9.42466 9.82497 10.2998 10.7001C11.175 11.5753 11.6667 12.7623 11.6667 14C11.6667 15.2376 11.175 16.4246 10.2998 17.2998C9.42466 18.175 8.23768 18.6666 7 18.6666H4.66667C4.35725 18.6666 4.0605 18.7896 3.84171 19.0083C3.62292 19.2271 3.5 19.5239 3.5 19.8333C3.5 20.1427 3.62292 20.4395 3.84171 20.6583C4.0605 20.8771 4.35725 21 4.66667 21H7C8.15584 20.9991 9.29349 20.7121 10.3114 20.1645C11.3293 19.6168 12.1957 18.8257 12.8333 17.8616C13.471 18.8257 14.3374 19.6168 15.3553 20.1645C16.3732 20.7121 17.5108 20.9991 18.6667 21H20.5217L20.1717 21.3383C20.0623 21.4468 19.9755 21.5758 19.9163 21.718C19.8571 21.8601 19.8266 22.0126 19.8266 22.1666C19.8266 22.3207 19.8571 22.4731 19.9163 22.6153C19.9755 22.7575 20.0623 22.8865 20.1717 22.995C20.2807 23.1031 20.41 23.1886 20.5521 23.2467C20.6943 23.3048 20.8465 23.3342 21 23.3333C21.1535 23.3342 21.3057 23.3048 21.4479 23.2467C21.59 23.1886 21.7193 23.1031 21.8283 22.995L24.1617 20.6616C24.2698 20.5526 24.3553 20.4233 24.4134 20.2812C24.4715 20.1391 24.5009 19.9868 24.5 19.8333C24.5009 19.6798 24.4715 19.5276 24.4134 19.3854C24.3553 19.2433 24.2698 19.114 24.1617 19.005L21.8283 16.6716Z" fill="white"/>
</svg>
