<svg width="20" height="20" viewBox="0 0 20 20" fill="none" xmlns="http://www.w3.org/2000/svg">
<path d="M15.5916 6.00834C15.5142 5.93023 15.422 5.86824 15.3205 5.82593C15.2189 5.78362 15.11 5.76184 15 5.76184C14.89 5.76184 14.781 5.78362 14.6795 5.82593C14.5779 5.86824 14.4858 5.93023 14.4083 6.00834L8.19998 12.225L5.59165 9.60834C5.51121 9.53064 5.41626 9.46955 5.31221 9.42854C5.20817 9.38754 5.09706 9.36743 4.98525 9.36936C4.87343 9.3713 4.76309 9.39524 4.66052 9.43982C4.55796 9.48439 4.46518 9.54874 4.38748 9.62917C4.30978 9.70961 4.24868 9.80456 4.20768 9.9086C4.16668 10.0126 4.14657 10.1238 4.1485 10.2356C4.15044 10.3474 4.17438 10.4577 4.21896 10.5603C4.26353 10.6629 4.32788 10.7556 4.40831 10.8333L7.60831 14.0333C7.68578 14.1114 7.77795 14.1734 7.8795 14.2157C7.98105 14.2581 8.08997 14.2798 8.19998 14.2798C8.30999 14.2798 8.41891 14.2581 8.52046 14.2157C8.62201 14.1734 8.71418 14.1114 8.79165 14.0333L15.5916 7.23334C15.6762 7.1553 15.7437 7.06059 15.7899 6.95518C15.8361 6.84976 15.8599 6.73592 15.8599 6.62084C15.8599 6.50575 15.8361 6.39192 15.7899 6.2865C15.7437 6.18108 15.6762 6.08637 15.5916 6.00834V6.00834Z" fill="white"/>
</svg>
