<svg width="17" height="16" viewBox="0 0 17 16" fill="none" xmlns="http://www.w3.org/2000/svg">
<path d="M14.4427 11.22L13.0379 9.80666C12.7358 9.52449 12.3546 9.33754 11.9434 9.26982C11.5323 9.20211 11.1099 9.25672 10.7305 9.42666L10.1198 8.82666C10.8395 7.88194 11.1682 6.70444 11.0397 5.53122C10.9112 4.35799 10.335 3.27614 9.42717 2.50346C8.51932 1.73077 7.3472 1.32463 6.14677 1.36678C4.94634 1.40893 3.80673 1.89625 2.95736 2.73064C2.10798 3.56502 1.61191 4.68452 1.569 5.86377C1.52609 7.04301 1.93953 8.19445 2.72609 9.08628C3.51266 9.97811 4.61394 10.5441 5.80824 10.6704C7.00255 10.7966 8.20119 10.4737 9.16289 9.76666L9.76688 10.36C9.57352 10.7331 9.50423 11.1564 9.56876 11.5702C9.63329 11.984 9.82839 12.3675 10.1266 12.6667L11.5653 14.08C11.947 14.4545 12.4645 14.6649 13.004 14.6649C13.5435 14.6649 14.061 14.4545 14.4427 14.08C14.6366 13.8937 14.7907 13.6713 14.8959 13.4257C15.0011 13.1802 15.0553 12.9164 15.0553 12.65C15.0553 12.3836 15.0011 12.1198 14.8959 11.8743C14.7907 11.6287 14.6366 11.4063 14.4427 11.22ZM8.68784 8.39332C8.21294 8.85866 7.60832 9.17529 6.95033 9.30322C6.29235 9.43116 5.61053 9.36466 4.991 9.11212C4.37147 8.85958 3.84203 8.43233 3.46956 7.88435C3.09708 7.33637 2.89829 6.69224 2.89829 6.03332C2.89829 5.37441 3.09708 4.73028 3.46956 4.1823C3.84203 3.63432 4.37147 3.20707 4.991 2.95453C5.61053 2.70199 6.29235 2.63549 6.95033 2.76343C7.60832 2.89136 8.21294 3.20799 8.68784 3.67332C9.00383 3.98296 9.25454 4.3508 9.4256 4.75577C9.59667 5.16073 9.68472 5.59488 9.68472 6.03332C9.68472 6.47177 9.59667 6.90591 9.4256 7.31088C9.25454 7.71585 9.00383 8.08369 8.68784 8.39332ZM13.4858 13.1067C13.4228 13.1691 13.3477 13.2187 13.265 13.2526C13.1823 13.2864 13.0936 13.3039 13.004 13.3039C12.9144 13.3039 12.8257 13.2864 12.743 13.2526C12.6603 13.2187 12.5853 13.1691 12.5222 13.1067L11.0834 11.6933C11.0198 11.6313 10.9693 11.5576 10.9349 11.4764C10.9004 11.3951 10.8827 11.308 10.8827 11.22C10.8827 11.132 10.9004 11.0448 10.9349 10.9636C10.9693 10.8824 11.0198 10.8086 11.0834 10.7467C11.1465 10.6842 11.2216 10.6346 11.3043 10.6007C11.387 10.5669 11.4757 10.5495 11.5653 10.5495C11.6549 10.5495 11.7436 10.5669 11.8263 10.6007C11.909 10.6346 11.984 10.6842 12.0471 10.7467L13.4858 12.16C13.5494 12.222 13.5999 12.2957 13.6344 12.3769C13.6688 12.4582 13.6866 12.5453 13.6866 12.6333C13.6866 12.7213 13.6688 12.8085 13.6344 12.8897C13.5999 12.9709 13.5494 13.0447 13.4858 13.1067Z" fill="white"/>
</svg>
